<svg xmlns="http://www.w3.org/2000/svg" width="17" height="17" viewBox="0 0 17 17" fill="none">
  <path d="M14.8751 14.8749L11.7989 11.7986M11.7989 11.7986C12.3251 11.2724 12.7425 10.6477 13.0273 9.96016C13.312 9.27263 13.4586 8.53574 13.4586 7.79157C13.4586 7.04739 13.312 6.3105 13.0273 5.62297C12.7425 4.93544 12.3251 4.31074 11.7989 3.78453C11.2726 3.25831 10.6479 2.8409 9.96041 2.55612C9.27288 2.27133 8.53599 2.12476 7.79181 2.12476C7.04764 2.12476 6.31075 2.27133 5.62322 2.55612C4.93569 2.8409 4.31098 3.25831 3.78477 3.78453C2.72204 4.84726 2.125 6.28864 2.125 7.79157C2.125 9.2945 2.72204 10.7359 3.78477 11.7986C4.8475 12.8613 6.28888 13.4584 7.79181 13.4584C9.29474 13.4584 10.7361 12.8613 11.7989 11.7986Z" stroke="#E50913" stroke-width="2" stroke-linecap="round" stroke-linejoin="round"/>
</svg>